<svg xmlns="http://www.w3.org/2000/svg" xmlns:xlink="http://www.w3.org/1999/xlink" width="22.45" height="22.468" viewBox="0 0 22.45 22.468">
  <defs>
    <clipPath id="clip-path">
      <rect id="Rectangle_2339" data-name="Rectangle 2339" width="22.45" height="22.468" fill="#b2d4cf"/>
    </clipPath>
  </defs>
  <g id="Group_16203" data-name="Group 16203" transform="translate(-1.054 -1.055)">
    <g id="Group_16198" data-name="Group 16198" transform="translate(1.054 1.055)" clip-path="url(#clip-path)">
      <path id="Path_11248" data-name="Path 11248" d="M11.16,0A11.234,11.234,0,1,1,0,11.117,11.218,11.218,0,0,1,11.16,0M9.877,10.274c-.022.131-.029.227-.055.317C9.464,11.849,9.1,13.1,8.745,14.364a7.27,7.27,0,0,0-.325,2.618,1.485,1.485,0,0,0,1.739,1.453,3.608,3.608,0,0,0,1.4-.448,10.583,10.583,0,0,0,1.361-.894,12.141,12.141,0,0,0,1.044-1.042c.111-.114.111-.217-.035-.316a3.151,3.151,0,0,1-.367-.3c-.094-.088-.151-.069-.236.019-.225.232-.454.462-.7.673a2.735,2.735,0,0,1-1.26.674.368.368,0,0,1-.472-.4c0-.108.014-.215.027-.322a16.645,16.645,0,0,1,.618-2.94c.292-.922.61-1.836.93-2.75.166-.475.364-.94.543-1.411.1-.256.071-.292-.2-.27-.209.017-.416.047-.624.074-1,.131-2,.265-3,.394-.1.013-.157.053-.17.153-.033.258-.065.517-.1.774-.018.125.027.177.154.174.254,0,.508,0,.8,0m.785-4.583a1.661,1.661,0,0,0,1.69,1.677A1.707,1.707,0,0,0,13.986,5.68a1.7,1.7,0,0,0-1.667-1.656,1.611,1.611,0,0,0-1.657,1.667" transform="translate(0 0)" fill="#b2d4cf"/>
    </g>
  </g>
</svg>
