<svg width="35" height="35" viewBox="0 0 35 35" fill="none" xmlns="http://www.w3.org/2000/svg">
<path d="M13 29C13.5523 29 14 28.5523 14 28C14 27.4477 13.5523 27 13 27C12.4477 27 12 27.4477 12 28C12 28.5523 12.4477 29 13 29Z" stroke="#5D5D5D" stroke-width="2" stroke-linecap="round" stroke-linejoin="round"/>
<path d="M24 29C24.5523 29 25 28.5523 25 28C25 27.4477 24.5523 27 24 27C23.4477 27 23 27.4477 23 28C23 28.5523 23.4477 29 24 29Z" stroke="#5D5D5D" stroke-width="2" stroke-linecap="round" stroke-linejoin="round"/>
<path d="M5 8H9L11.68 21.39C11.7714 21.8504 12.0219 22.264 12.3875 22.5583C12.7532 22.8526 13.2107 23.009 13.68 23H23.4C23.8693 23.009 24.3268 22.8526 24.6925 22.5583C25.0581 22.264 25.3086 21.8504 25.4 21.39L27 13H10" stroke="#5D5D5D" stroke-width="2" stroke-linecap="round" stroke-linejoin="round"/>
</svg>
