<svg width="112" height="32" viewBox="0 0 112 32" fill="none" xmlns="http://www.w3.org/2000/svg">
<path d="M38.7808 15.9995C38.7808 11.8853 37.1464 7.93957 34.2372 5.03038C31.328 2.12119 27.3823 0.486817 23.2681 0.486816C19.1539 0.486816 15.2082 2.12119 12.299 5.03038C9.38974 7.93957 7.75537 11.8853 7.75537 15.9995H12.6032C14.2096 15.9995 15.4624 14.6533 16.0508 13.1585C16.4371 12.1771 17.0233 11.2752 17.7835 10.5149C19.2381 9.06034 21.211 8.24316 23.2681 8.24316C25.3252 8.24316 27.2981 9.06034 28.7527 10.5149C30.2073 11.9695 31.0244 13.9424 31.0244 15.9995H38.7808Z" fill="url(#paint0_linear_23_362)"/>
<path d="M29.8444 21.9369C30.624 20.0548 31.0253 18.0376 31.0253 16.0005H38.7808C38.7808 24.5679 31.8355 31.5131 23.2681 31.5131C21.9264 31.5131 20.6244 31.3428 19.3828 31.0226C20.0853 30.8416 20.7758 30.6111 21.449 30.3323C23.3311 29.5527 25.0412 28.4101 26.4817 26.9696C27.9222 25.5291 29.0649 23.819 29.8444 21.9369Z" fill="#4392F9"/>
<path d="M0 15.9985C-2.91433e-07 18.0357 0.401247 20.0529 1.18083 21.935C1.96042 23.8171 3.10307 25.5272 4.54356 26.9677C5.98404 28.4081 7.69415 29.5508 9.57623 30.3304C11.4583 31.11 13.4755 31.5112 15.5127 31.5112C17.5498 31.5112 19.567 31.11 21.4491 30.3304C23.3312 29.5508 25.0413 28.4081 26.4818 26.9677C27.9223 25.5272 29.0649 23.8171 29.8445 21.935C30.6241 20.0529 31.0254 18.0357 31.0254 15.9985H26.1776C24.5712 15.9985 23.3184 17.3447 22.73 18.8394C22.7133 18.882 22.6961 18.9244 22.6786 18.9668C22.2888 19.9078 21.7175 20.7629 20.9972 21.4831C20.277 22.2033 19.4219 22.7747 18.4809 23.1645C17.5399 23.5543 16.5313 23.7549 15.5127 23.7549C14.4941 23.7549 13.4855 23.5543 12.5445 23.1645C11.6034 22.7747 10.7484 22.2033 10.0281 21.4831C9.30787 20.7629 8.73655 19.9078 8.34676 18.9668C7.95696 18.0257 7.75634 17.0171 7.75634 15.9985H0Z" fill="url(#paint1_linear_23_362)"/>
<path d="M0.00146484 15.9995C0.00146484 7.43206 6.94671 0.486816 15.5141 0.486816C16.8555 0.486816 18.1571 0.657062 19.3986 0.977139C16.7347 1.66339 14.2773 3.05217 12.299 5.03039C9.3898 7.93955 7.75545 11.8853 7.75545 15.9995H0.00146484Z" fill="#F83758"/>
<path d="M53.9707 22.162C53.4187 22.162 52.8817 22.09 52.3597 21.946C51.8377 21.802 51.2767 21.577 50.6767 21.271L50.0557 22H49.4977L49.1467 17.437L49.8937 17.32C50.2777 18.658 50.7847 19.627 51.4147 20.227C52.0507 20.827 52.8937 21.127 53.9437 21.127C54.6937 21.127 55.2907 20.947 55.7347 20.587C56.1847 20.227 56.4097 19.732 56.4097 19.102C56.4097 18.724 56.2507 18.373 55.9327 18.049C55.6207 17.719 55.0807 17.368 54.3127 16.996L52.8637 16.276C51.6877 15.694 50.8237 15.049 50.2717 14.341C49.7197 13.633 49.4437 12.808 49.4437 11.866C49.4437 11.14 49.6447 10.495 50.0467 9.931C50.4487 9.361 50.9917 8.914 51.6757 8.59C52.3657 8.266 53.1457 8.104 54.0157 8.104C55.2337 8.104 56.2777 8.473 57.1477 9.211L57.5707 8.266H58.1647L58.3357 12.208H57.5527C57.2587 11.194 56.8267 10.432 56.2567 9.922C55.6927 9.412 54.9757 9.157 54.1057 9.157C53.4937 9.157 53.0167 9.307 52.6747 9.607C52.3327 9.907 52.1617 10.321 52.1617 10.849C52.1617 11.257 52.3147 11.623 52.6207 11.947C52.9267 12.265 53.4577 12.616 54.2137 13L55.6357 13.729C56.7637 14.305 57.5737 14.938 58.0657 15.628C58.5637 16.318 58.8127 17.146 58.8127 18.112C58.8127 18.88 58.5997 19.57 58.1737 20.182C57.7477 20.794 57.1687 21.277 56.4367 21.631C55.7047 21.985 54.8827 22.162 53.9707 22.162ZM63.9363 22.189C63.0123 22.189 62.3553 21.988 61.9653 21.586C61.5753 21.184 61.3803 20.539 61.3803 19.651V13.45H60.1203L60.0123 12.901L63.6033 10.165L64.1523 10.255V12.559H66.9063L66.6453 13.45H64.1523V19.471C64.1523 20.425 64.5243 20.902 65.2683 20.902C65.4783 20.902 65.6763 20.866 65.8623 20.794C66.0483 20.722 66.2193 20.593 66.3753 20.407L66.7893 20.983C66.4773 21.379 66.0723 21.679 65.5743 21.883C65.0763 22.087 64.5303 22.189 63.9363 22.189ZM69.4145 26.635C68.8325 26.635 68.3345 26.506 67.9205 26.248C67.5125 25.99 67.3085 25.606 67.3085 25.096C67.3085 24.754 67.4225 24.481 67.6505 24.277C67.8785 24.073 68.1485 23.971 68.4605 23.971C68.7245 23.971 68.9585 24.046 69.1625 24.196C69.3725 24.346 69.5225 24.574 69.6125 24.88C69.6965 25.162 69.7775 25.345 69.8555 25.429C69.9335 25.519 70.0535 25.564 70.2155 25.564C70.4255 25.564 70.6325 25.459 70.8365 25.249C71.0405 25.039 71.2085 24.751 71.3405 24.385L72.0425 22.495L68.2445 13.9C68.1425 13.672 67.9895 13.507 67.7855 13.405C67.5815 13.297 67.2575 13.222 66.8135 13.18V12.559H72.6275V13.18C72.2495 13.21 71.9585 13.258 71.7545 13.324C71.5565 13.39 71.4335 13.483 71.3855 13.603C71.3375 13.723 71.3525 13.879 71.4305 14.071L73.5005 18.949H73.5905L75.3815 14.593C75.5855 14.131 75.5855 13.789 75.3815 13.567C75.1835 13.345 74.7635 13.216 74.1215 13.18V12.559H78.4055V13.18C77.9675 13.264 77.6315 13.357 77.3975 13.459C77.1635 13.561 76.9805 13.702 76.8485 13.882C76.7165 14.056 76.5845 14.299 76.4525 14.611L72.3485 24.511C72.1805 24.901 72.0005 25.231 71.8085 25.501C71.6165 25.771 71.4065 25.993 71.1785 26.167C70.7405 26.479 70.1525 26.635 69.4145 26.635ZM78.2057 22V21.37L79.7357 21.019V8.977L78.2057 8.5V8.068L82.1027 7.213H82.4807V21.019L83.9117 21.37V22H78.2057ZM84.6774 22V21.37L86.1984 21.019V14.143L84.6774 13.657V13.234L88.5834 12.379H88.9614V21.019L90.3834 21.37V22H84.6774ZM87.5484 11.047C87.0564 11.047 86.6784 10.894 86.4144 10.588C86.1504 10.282 86.0184 9.949 86.0184 9.589C86.0184 9.199 86.1534 8.854 86.4234 8.554C86.6994 8.254 87.0744 8.104 87.5484 8.104C88.0344 8.104 88.4184 8.254 88.7004 8.554C88.9884 8.854 89.1324 9.199 89.1324 9.589C89.1324 9.949 88.9974 10.282 88.7274 10.588C88.4634 10.894 88.0704 11.047 87.5484 11.047ZM94.4414 22.189C93.9854 22.189 93.5024 22.153 92.9924 22.081C92.4824 22.015 92.0444 21.922 91.6784 21.802L91.5614 18.904H92.3264C92.3804 19.678 92.5814 20.272 92.9294 20.686C93.2834 21.094 93.7694 21.298 94.3874 21.298C94.8494 21.298 95.2184 21.181 95.4944 20.947C95.7704 20.707 95.9084 20.395 95.9084 20.011C95.9084 19.711 95.8004 19.444 95.5844 19.21C95.3744 18.97 95.0144 18.715 94.5044 18.445L93.6404 18.004C92.9324 17.632 92.4104 17.218 92.0744 16.762C91.7444 16.306 91.5794 15.763 91.5794 15.133C91.5794 14.227 91.9094 13.543 92.5694 13.081C93.2354 12.613 94.2134 12.379 95.5034 12.379C95.9594 12.379 96.3974 12.409 96.8174 12.469C97.2434 12.523 97.5854 12.598 97.8434 12.694V15.16H97.1594C96.9854 13.9 96.3914 13.27 95.3774 13.27C94.9694 13.27 94.6394 13.369 94.3874 13.567C94.1414 13.765 94.0184 14.023 94.0184 14.341C94.0184 14.623 94.1294 14.878 94.3514 15.106C94.5734 15.328 94.9574 15.571 95.5034 15.835L96.3584 16.276C97.0244 16.618 97.5164 17.02 97.8344 17.482C98.1524 17.938 98.3114 18.49 98.3114 19.138C98.3114 20.098 97.9724 20.848 97.2944 21.388C96.6164 21.922 95.6654 22.189 94.4414 22.189ZM99.353 22V21.37L100.685 21.019V8.995L99.344 8.5V8.086L103.07 7.213H103.457V21.019L104.699 21.37V22H99.353ZM105.68 22V21.37L106.931 21.019V16.141C106.931 15.409 106.784 14.869 106.49 14.521C106.196 14.167 105.755 13.99 105.167 13.99C104.801 13.99 104.459 14.062 104.141 14.206C103.823 14.35 103.523 14.548 103.241 14.8V13.675C103.703 13.315 104.249 13.009 104.879 12.757C105.515 12.505 106.166 12.379 106.832 12.379C108.74 12.379 109.694 13.423 109.694 15.511V21.019L111.035 21.37V22H105.68Z" fill="#4392F9"/>
<defs>
<linearGradient id="paint0_linear_23_362" x1="38.7808" y1="8.24316" x2="7.75537" y2="8.24316" gradientUnits="userSpaceOnUse">
<stop stop-color="#CFE2FC"/>
<stop offset="1" stop-color="#4392F9"/>
</linearGradient>
<linearGradient id="paint1_linear_23_362" x1="1.01712e-06" y1="23.7549" x2="31.0254" y2="23.7549" gradientUnits="userSpaceOnUse">
<stop stop-color="#F8BCC6"/>
<stop offset="1" stop-color="#F83758"/>
</linearGradient>
</defs>
</svg>
