<svg width="17" height="20" viewBox="0 0 17 20" fill="none" xmlns="http://www.w3.org/2000/svg">
<path fill-rule="evenodd" clip-rule="evenodd" d="M4.29274 7H12.212C12.7558 6.99998 13.2249 6.99997 13.6113 7.03057C14.0191 7.06287 14.4247 7.13419 14.815 7.32698C15.3973 7.6146 15.8707 8.07355 16.1674 8.63803C16.3663 9.01641 16.4399 9.40963 16.4732 9.80498C16.5048 10.1795 16.5048 10.6344 16.5047 11.1615V15.8386C16.5048 16.3657 16.5048 16.8205 16.4732 17.195C16.4399 17.5904 16.3663 17.9836 16.1674 18.362C15.8707 18.9265 15.3973 19.3854 14.815 19.673C14.4247 19.8658 14.0191 19.9371 13.6113 19.9694C13.2249 20 12.7558 20 12.212 20H4.29273C3.74895 20 3.27985 20 2.89346 19.9694C2.48564 19.9371 2.08002 19.8658 1.6897 19.673C1.10741 19.3854 0.633992 18.9265 0.337299 18.362C0.138423 17.9836 0.064857 17.5904 0.031537 17.195C-3.08347e-05 16.8205 -1.61912e-05 16.3657 7.83332e-07 15.8386V11.1614C-1.61912e-05 10.6343 -3.08328e-05 10.1795 0.031537 9.80498C0.064857 9.40963 0.138423 9.01641 0.337299 8.63803C0.633992 8.07355 1.10741 7.6146 1.6897 7.32698C2.08002 7.13419 2.48564 7.06287 2.89346 7.03057C3.27983 6.99997 3.74899 6.99998 4.29274 7ZM8.25237 13C7.68266 13 7.22082 13.4477 7.22082 14V15C7.22082 15.5523 7.68266 16 8.25237 16C8.82207 16 9.28391 15.5523 9.28391 15V14C9.28391 13.4477 8.82207 13 8.25237 13Z" fill="#626262"/>
<path fill-rule="evenodd" clip-rule="evenodd" d="M4.12598 4C4.12598 1.79086 5.97333 0 8.25216 0C10.531 0 12.3783 1.79086 12.3783 4V7H10.3153V4C10.3153 2.89543 9.39157 2 8.25216 2C7.11275 2 6.18907 2.89543 6.18907 4V7H4.12598V4Z" fill="#626262"/>
</svg>
