<svg width="21" height="21" viewBox="0 0 21 21" fill="none" xmlns="http://www.w3.org/2000/svg">
<path d="M1 17.625C1 16.3652 1.50044 15.157 2.39124 14.2662C3.28204 13.3754 4.49022 12.875 5.75 12.875H15.25C16.5098 12.875 17.718 13.3754 18.6088 14.2662C19.4996 15.157 20 16.3652 20 17.625C20 18.2549 19.7498 18.859 19.3044 19.3044C18.859 19.7498 18.2549 20 17.625 20H3.375C2.74511 20 2.14102 19.7498 1.69562 19.3044C1.25022 18.859 1 18.2549 1 17.625Z" stroke="#5D5D5D" stroke-width="1.5" stroke-linejoin="round"/>
<path d="M10.5 8.125C12.4675 8.125 14.0625 6.53001 14.0625 4.5625C14.0625 2.59499 12.4675 1 10.5 1C8.53249 1 6.9375 2.59499 6.9375 4.5625C6.9375 6.53001 8.53249 8.125 10.5 8.125Z" stroke="#5D5D5D" stroke-width="1.5"/>
</svg>
