<svg width="142" height="117" viewBox="0 0 142 117" fill="none" xmlns="http://www.w3.org/2000/svg">
<g clip-path="url(#clip0_23_482)">
<path d="M58.5104 27.5319H57.8657V10.0931C57.8657 8.76767 57.6013 7.4552 57.0875 6.23064C56.5738 5.00609 55.8208 3.89343 54.8715 2.9562C53.9223 2.01896 52.7954 1.27551 51.5551 0.768284C50.3148 0.261059 48.9855 -4.1467e-06 47.6431 0H10.2226C8.88017 -4.1467e-06 7.55086 0.261059 6.31059 0.768284C5.07033 1.27551 3.94339 2.01896 2.99413 2.9562C2.04487 3.89343 1.29188 5.00609 0.778146 6.23065C0.264411 7.4552 -2.09997e-06 8.76767 0 10.0931V105.764C-1.25998e-06 107.089 0.264413 108.402 0.778148 109.626C1.29188 110.851 2.04488 111.963 2.99414 112.901C3.9434 113.838 5.07033 114.581 6.31059 115.089C7.55086 115.596 8.88017 115.857 10.2226 115.857H47.6431C48.9855 115.857 50.3148 115.596 51.5551 115.089C52.7953 114.581 53.9223 113.838 54.8715 112.901C55.8208 111.963 56.5738 110.851 57.0875 109.626C57.6013 108.402 57.8657 107.089 57.8657 105.764V39.9452H58.5104V27.5319Z" fill="#E6E6E6"/>
<path d="M48.0556 2.62549H43.171C43.3956 3.16923 43.4814 3.75918 43.4207 4.34335C43.36 4.92752 43.1547 5.48799 42.823 5.97539C42.4912 6.46279 42.0431 6.86215 41.5182 7.1383C40.9933 7.41445 40.4077 7.55891 39.8129 7.55896H18.3752C17.7805 7.55891 17.1948 7.41445 16.6699 7.1383C16.145 6.86215 15.6969 6.46279 15.3652 5.97539C15.0334 5.48799 14.8282 4.92752 14.7675 4.34335C14.7068 3.75918 14.7925 3.16923 15.0172 2.62549H10.4549C9.4524 2.62549 8.45969 2.82045 7.53348 3.19924C6.60726 3.57803 5.76568 4.13323 5.05679 4.83314C4.3479 5.53305 3.78557 6.36397 3.40192 7.27845C3.01827 8.19293 2.8208 9.17307 2.8208 10.1629V105.693C2.8208 106.683 3.01827 107.663 3.40192 108.578C3.78557 109.492 4.34789 110.323 5.05679 111.023C5.76568 111.723 6.60726 112.278 7.53347 112.657C8.45969 113.036 9.4524 113.231 10.4549 113.231H48.0556C49.0581 113.231 50.0508 113.036 50.977 112.657C51.9033 112.278 52.7448 111.723 53.4537 111.023C54.1626 110.323 54.7249 109.492 55.1086 108.578C55.4923 107.663 55.6897 106.683 55.6897 105.693V10.1629C55.6897 9.17307 55.4923 8.19293 55.1086 7.27845C54.7249 6.36397 54.1626 5.53305 53.4537 4.83314C52.7448 4.13323 51.9032 3.57803 50.977 3.19924C50.0508 2.82045 49.0581 2.62549 48.0556 2.62549Z" fill="white"/>
<path d="M18.1774 22.0459H15.9324C15.8535 22.0459 15.7778 22.0769 15.7219 22.132C15.6661 22.1871 15.6348 22.2618 15.6348 22.3398V23.3127C15.6348 23.3906 15.6661 23.4654 15.7219 23.5205C15.7778 23.5756 15.8535 23.6066 15.9324 23.6066H16.3044V25.0643H17.8054V23.6066H18.1774C18.2564 23.6066 18.3321 23.5756 18.3879 23.5205C18.4437 23.4654 18.4751 23.3906 18.4751 23.3127V22.3398C18.4751 22.2618 18.4437 22.1871 18.3879 22.132C18.3321 22.0769 18.2564 22.0459 18.1774 22.0459Z" fill="#E6E6E6"/>
<path d="M20.4258 30.9509C19.0509 28.9645 18.348 26.5994 18.4178 24.1944C18.4191 24.1389 18.4009 24.0847 18.3662 24.041C18.3316 23.9973 18.2827 23.9667 18.2278 23.9546V23.5342H15.8568V23.9487H15.8241C15.7596 23.9488 15.6978 23.9742 15.6522 24.0193C15.6066 24.0644 15.5811 24.1255 15.5812 24.1893C15.5812 24.1951 15.5814 24.2009 15.5818 24.2067C15.7686 26.7776 15.1379 29.0831 13.6896 31.1233C13.6062 31.2405 13.5636 31.3813 13.5682 31.5245L13.8275 39.4426C13.8337 39.6192 13.9088 39.7866 14.037 39.9099C14.1653 40.0331 14.3368 40.1027 14.5158 40.1041H19.8787C20.0597 40.1027 20.233 40.0315 20.3617 39.9057C20.4903 39.78 20.5641 39.6096 20.5674 39.4309L20.6673 31.7431C20.6703 31.4609 20.586 31.1845 20.4258 30.9509Z" fill="#E6E6E6"/>
<path d="M19.5775 33.5811H14.9094C14.8403 33.5811 14.7721 33.5958 14.7093 33.6243C14.6465 33.6528 14.5907 33.6944 14.5457 33.7461C14.5007 33.7979 14.4676 33.8587 14.4486 33.9243C14.4296 33.9899 14.4252 34.0588 14.4358 34.1262L15.1412 38.6533H19.1917L20.0485 34.1414C20.0615 34.0731 20.059 34.0028 20.0414 33.9355C20.0237 33.8682 19.9912 33.8055 19.9462 33.752C19.9013 33.6985 19.8449 33.6555 19.7812 33.6259C19.7174 33.5964 19.6479 33.5811 19.5775 33.5811Z" fill="white"/>
<path d="M43.1686 45.7656H40.9236C40.8447 45.7656 40.769 45.7966 40.7132 45.8517C40.6573 45.9068 40.626 45.9816 40.626 46.0595V47.0324C40.626 47.1104 40.6573 47.1851 40.7132 47.2402C40.769 47.2953 40.8447 47.3263 40.9236 47.3263H41.2957V48.7841H42.7966V47.3263H43.1686C43.2476 47.3263 43.3233 47.2953 43.3791 47.2402C43.4349 47.1851 43.4663 47.1104 43.4663 47.0324V46.0595C43.4663 45.9816 43.4349 45.9068 43.3791 45.8517C43.3233 45.7966 43.2476 45.7656 43.1686 45.7656Z" fill="#E6E6E6"/>
<path d="M45.417 54.6701C44.0421 52.6837 43.3392 50.3186 43.4091 47.9137C43.4103 47.8582 43.3921 47.804 43.3574 47.7602C43.3228 47.7165 43.2739 47.686 43.2191 47.6738V47.2534H40.848V47.668H40.8153C40.7834 47.668 40.7518 47.6743 40.7223 47.6864C40.6928 47.6985 40.666 47.7162 40.6434 47.7385C40.6208 47.7609 40.603 47.7874 40.5908 47.8165C40.5786 47.8457 40.5723 47.8769 40.5724 47.9085C40.5724 47.9143 40.5726 47.9202 40.573 47.926C40.7598 50.4969 40.1291 52.8024 38.6808 54.8425C38.5974 54.9598 38.5548 55.1005 38.5594 55.2437L38.8187 63.1618C38.8249 63.3384 38.9 63.5058 39.0282 63.6291C39.1565 63.7524 39.328 63.822 39.507 63.8234H44.8699C45.051 63.8219 45.2242 63.7507 45.3529 63.625C45.4815 63.4992 45.5554 63.3288 45.5587 63.1501L45.6586 55.4623C45.6615 55.1801 45.5773 54.9038 45.417 54.6701Z" fill="#E6E6E6"/>
<path d="M44.5686 57.2998H39.9006C39.8315 57.2998 39.7633 57.3146 39.7005 57.3431C39.6377 57.3715 39.5819 57.4131 39.5369 57.4649C39.4919 57.5167 39.4588 57.5774 39.4398 57.643C39.4208 57.7086 39.4165 57.7775 39.427 57.8449L40.1324 62.372H44.1829L45.0397 57.8602C45.0527 57.7919 45.0502 57.7215 45.0326 57.6542C45.0149 57.5869 44.9824 57.5243 44.9374 57.4708C44.8925 57.4173 44.8361 57.3742 44.7724 57.3447C44.7086 57.3151 44.6391 57.2998 44.5687 57.2998H44.5686Z" fill="white"/>
<path d="M15.021 79.2988H13.9561C13.9187 79.2988 13.8828 79.3135 13.8563 79.3397C13.8298 79.3658 13.8149 79.4013 13.8149 79.4382V79.8997C13.8149 79.9367 13.8298 79.9722 13.8563 79.9983C13.8828 80.0244 13.9187 80.0391 13.9561 80.0391H14.1326V80.7306H14.8446V80.0391H15.021C15.0585 80.0391 15.0944 80.0244 15.1209 79.9983C15.1474 79.9722 15.1622 79.9367 15.1622 79.8997V79.4382C15.1622 79.4013 15.1474 79.3658 15.1209 79.3397C15.0944 79.3135 15.0585 79.2988 15.021 79.2988Z" fill="#E6E6E6"/>
<path d="M16.088 83.522C15.4358 82.5797 15.1024 81.4579 15.1355 80.3171C15.1361 80.2908 15.1275 80.265 15.111 80.2443C15.0946 80.2236 15.0714 80.2091 15.0454 80.2033V80.0039H13.9207V80.2005H13.9052C13.89 80.2006 13.875 80.2035 13.8611 80.2093C13.8471 80.215 13.8343 80.2234 13.8236 80.234C13.8129 80.2446 13.8045 80.2572 13.7987 80.271C13.7929 80.2849 13.7899 80.2997 13.7899 80.3146C13.7899 80.3174 13.7901 80.3202 13.7903 80.3229C13.8941 81.487 13.576 82.6496 12.8927 83.6038C12.8531 83.6594 12.8329 83.7261 12.8351 83.7941L12.9581 87.55C12.961 87.6337 12.9967 87.7132 13.0575 87.7716C13.1183 87.8301 13.1997 87.8631 13.2846 87.8638H15.8285C15.9143 87.8631 15.9965 87.8293 16.0576 87.7697C16.1186 87.71 16.1536 87.6292 16.1552 87.5444L16.2026 83.8977C16.204 83.7639 16.164 83.6328 16.088 83.522Z" fill="#E6E6E6"/>
<path d="M15.7217 84.9033H13.2944V86.1016H15.7217V84.9033Z" fill="white"/>
<path d="M19.9786 79.2988H18.9137C18.8762 79.2988 18.8403 79.3135 18.8138 79.3397C18.7873 79.3658 18.7725 79.4013 18.7725 79.4382V79.8997C18.7725 79.9367 18.7873 79.9722 18.8138 79.9983C18.8403 80.0244 18.8762 80.0391 18.9137 80.0391H19.0901V80.7306H19.8021V80.0391H19.9786C20.016 80.0391 20.0519 80.0244 20.0784 79.9983C20.1049 79.9722 20.1198 79.9367 20.1198 79.8997V79.4382C20.1198 79.4013 20.1049 79.3658 20.0784 79.3397C20.0519 79.3135 20.016 79.2988 19.9786 79.2988Z" fill="#E6E6E6"/>
<path d="M21.045 83.522C20.3928 82.5797 20.0594 81.4579 20.0926 80.3171C20.0932 80.2908 20.0845 80.265 20.0681 80.2443C20.0516 80.2236 20.0284 80.2091 20.0024 80.2033V80.0039H18.8777V80.2005H18.8622C18.8471 80.2006 18.8321 80.2035 18.8181 80.2093C18.8041 80.215 18.7914 80.2234 18.7807 80.234C18.77 80.2446 18.7615 80.2572 18.7557 80.271C18.7499 80.2849 18.747 80.2997 18.747 80.3146C18.747 80.3174 18.7471 80.3202 18.7473 80.3229C18.8511 81.487 18.533 82.6496 17.8497 83.6038C17.8102 83.6594 17.79 83.7261 17.7922 83.7941L17.9151 87.55C17.9181 87.6337 17.9537 87.7132 18.0145 87.7716C18.0754 87.8301 18.1567 87.8631 18.2416 87.8638H20.7855C20.8714 87.8631 20.9536 87.8293 21.0146 87.7697C21.0756 87.71 21.1106 87.6292 21.1122 87.5444L21.1596 83.8977C21.161 83.7639 21.121 83.6328 21.045 83.522Z" fill="#E6E6E6"/>
<path d="M20.6787 84.9033H18.2515V86.1016H20.6787V84.9033Z" fill="white"/>
<path d="M24.9356 79.2988H23.8707C23.8332 79.2988 23.7973 79.3135 23.7708 79.3397C23.7444 79.3658 23.7295 79.4013 23.7295 79.4382V79.8997C23.7295 79.9367 23.7444 79.9722 23.7708 79.9983C23.7973 80.0244 23.8332 80.0391 23.8707 80.0391H24.0472V80.7306H24.7591V80.0391H24.9356C24.973 80.0391 25.009 80.0244 25.0354 79.9983C25.0619 79.9722 25.0768 79.9367 25.0768 79.8997V79.4382C25.0768 79.4013 25.0619 79.3658 25.0354 79.3397C25.009 79.3135 24.973 79.2988 24.9356 79.2988Z" fill="#E6E6E6"/>
<path d="M26.0021 83.522C25.3499 82.5797 25.0165 81.4579 25.0496 80.3171C25.0502 80.2908 25.0415 80.265 25.0251 80.2443C25.0087 80.2236 24.9855 80.2091 24.9595 80.2033V80.0039H23.8348V80.2005H23.8193C23.8041 80.2006 23.7891 80.2035 23.7751 80.2093C23.7611 80.215 23.7484 80.2234 23.7377 80.234C23.727 80.2446 23.7185 80.2572 23.7127 80.271C23.707 80.2849 23.704 80.2997 23.704 80.3146C23.704 80.3174 23.7041 80.3202 23.7043 80.3229C23.8081 81.487 23.4901 82.6496 22.8067 83.6038C22.7672 83.6594 22.747 83.7261 22.7492 83.7941L22.8722 87.55C22.8751 87.6337 22.9107 87.7132 22.9716 87.7716C23.0324 87.8301 23.1138 87.8631 23.1986 87.8638H25.7425C25.8284 87.8631 25.9106 87.8293 25.9716 87.7697C26.0326 87.71 26.0677 87.6292 26.0692 87.5444L26.1166 83.8977C26.118 83.7639 26.0781 83.6328 26.0021 83.522Z" fill="#E6E6E6"/>
<path d="M25.6363 84.9033H23.209V86.1016H25.6363V84.9033Z" fill="white"/>
<path d="M39.2687 70.1221H37.0237C36.9846 70.1221 36.9459 70.1297 36.9098 70.1444C36.8737 70.1592 36.8409 70.1809 36.8133 70.2081C36.7856 70.2354 36.7637 70.2678 36.7487 70.3035C36.7338 70.3391 36.7261 70.3774 36.7261 70.4159V71.3889C36.7261 71.4668 36.7574 71.5416 36.8133 71.5967C36.8691 71.6518 36.9448 71.6828 37.0237 71.6828H37.3958V73.1405H38.8967V71.6828H39.2687C39.3477 71.6828 39.4234 71.6518 39.4792 71.5967C39.535 71.5416 39.5664 71.4668 39.5664 71.3889V70.4159C39.5664 70.3774 39.5587 70.3391 39.5437 70.3035C39.5288 70.2678 39.5069 70.2354 39.4792 70.2081C39.4516 70.1809 39.4188 70.1592 39.3827 70.1444C39.3465 70.1297 39.3078 70.1221 39.2687 70.1221Z" fill="#E6E6E6"/>
<path d="M41.5171 79.0265C40.1422 77.0401 39.4393 74.6751 39.5091 72.2701C39.5104 72.2146 39.4922 72.1604 39.4575 72.1167C39.4229 72.073 39.374 72.0424 39.3191 72.0303V71.6099H36.9481V72.0244H36.9154C36.8835 72.0245 36.8519 72.0307 36.8224 72.0428C36.7929 72.0549 36.7661 72.0727 36.7435 72.095C36.7209 72.1173 36.703 72.1438 36.6909 72.173C36.6787 72.2021 36.6724 72.2334 36.6725 72.2649C36.6725 72.2708 36.6727 72.2766 36.6731 72.2824C36.8599 74.8533 36.2292 77.1588 34.7809 79.1989C34.6975 79.3162 34.6549 79.457 34.6595 79.6001L34.9188 87.5182C34.925 87.6948 35.0001 87.8623 35.1283 87.9855C35.2566 88.1088 35.4281 88.1784 35.6071 88.1798H40.97C41.151 88.1783 41.3243 88.1072 41.453 87.9814C41.5816 87.8556 41.6554 87.6853 41.6587 87.5066L41.7586 79.8187C41.7616 79.5366 41.6773 79.2602 41.5171 79.0265Z" fill="#E6E6E6"/>
<path d="M40.6683 81.6563H36.0003C35.9312 81.6562 35.8629 81.671 35.8001 81.6995C35.7373 81.728 35.6815 81.7695 35.6365 81.8213C35.5915 81.8731 35.5584 81.9339 35.5394 81.9995C35.5204 82.0651 35.5161 82.134 35.5266 82.2014L36.232 86.7284H40.2825L41.1393 82.2166C41.1523 82.1483 41.1498 82.078 41.1322 82.0107C41.1145 81.9434 41.082 81.8808 41.037 81.8272C40.9921 81.7737 40.9357 81.7307 40.872 81.7011C40.8082 81.6716 40.7387 81.6563 40.6683 81.6563Z" fill="white"/>
<path d="M40.4943 41.123H27.1118C28.0474 36.1286 27.8322 30.0977 27.1118 23.6118H40.4943C39.7931 30.0977 39.5836 36.1286 40.4943 41.123Z" fill="#E6E6E6"/>
<path d="M33.8839 35.0738C35.6648 35.0738 37.1086 33.6483 37.1086 31.8899C37.1086 30.1315 35.6648 28.7061 33.8839 28.7061C32.1029 28.7061 30.6592 30.1315 30.6592 31.8899C30.6592 33.6483 32.1029 35.0738 33.8839 35.0738Z" fill="white"/>
<path d="M28.2404 64.3652H14.8579C15.7935 59.3708 15.5783 53.3399 14.8579 46.854H28.2404C27.5392 53.3399 27.3297 59.3708 28.2404 64.3652Z" fill="#E6E6E6"/>
<path d="M21.63 58.3155C23.4109 58.3155 24.8547 56.89 24.8547 55.1316C24.8547 53.3732 23.4109 51.9478 21.63 51.9478C19.849 51.9478 18.4053 53.3732 18.4053 55.1316C18.4053 56.89 19.849 58.3155 21.63 58.3155Z" fill="white"/>
<path d="M48.0724 42.2373H34.6899C35.6256 37.2428 35.4103 31.2119 34.6899 24.7261H48.0724C47.3712 31.2119 47.1617 37.2429 48.0724 42.2373Z" fill="#E6E6E6"/>
<path d="M41.4615 36.188C43.2425 36.188 44.6862 34.7626 44.6862 33.0042C44.6862 31.2458 43.2425 29.8203 41.4615 29.8203C39.6806 29.8203 38.2368 31.2458 38.2368 33.0042C38.2368 34.7626 39.6806 36.188 41.4615 36.188Z" fill="white"/>
<path d="M48.0724 41.4409H34.6899C35.6256 36.4465 35.4103 30.4155 34.6899 23.9297H48.0724C47.3712 30.4156 47.1617 36.4465 48.0724 41.4409Z" fill="#E6E6E6"/>
<path d="M41.4615 35.3921C43.2425 35.3921 44.6862 33.9667 44.6862 32.2083C44.6862 30.4499 43.2425 29.0244 41.4615 29.0244C39.6806 29.0244 38.2368 30.4499 38.2368 32.2083C38.2368 33.9667 39.6806 35.3921 41.4615 35.3921Z" fill="white"/>
<path d="M48.0724 42.2373H34.6899C35.6256 37.2428 35.4103 31.2119 34.6899 24.7261H48.0724C47.3712 31.2119 47.1617 37.2429 48.0724 42.2373Z" fill="#E6E6E6"/>
<path d="M41.4615 36.188C43.2425 36.188 44.6862 34.7626 44.6862 33.0042C44.6862 31.2458 43.2425 29.8203 41.4615 29.8203C39.6806 29.8203 38.2368 31.2458 38.2368 33.0042C38.2368 34.7626 39.6806 36.188 41.4615 36.188Z" fill="white"/>
<path d="M51.1357 40.1675H7.27979V44.9433H51.1357V40.1675Z" fill="#E6E6E6"/>
<path d="M51.1357 63.8877H7.27979V68.6635H51.1357V63.8877Z" fill="#E6E6E6"/>
<path d="M51.1357 87.6074H7.27979V92.3832H51.1357V87.6074Z" fill="#E6E6E6"/>
<path d="M127.425 106.983L116.5 99.3527C120.184 95.8086 123.536 90.7621 126.741 85.0562L137.667 92.686C133.301 97.5814 129.603 102.386 127.425 106.983Z" fill="#F83758"/>
<path d="M127.428 98.8584C129.209 98.8584 130.652 97.433 130.652 95.6746C130.652 93.9162 129.209 92.4907 127.428 92.4907C125.647 92.4907 124.203 93.9162 124.203 95.6746C124.203 97.433 125.647 98.8584 127.428 98.8584Z" fill="white"/>
<path d="M74.7201 72.1655H73.5208C73.4786 72.1655 73.4382 72.1821 73.4084 72.2115C73.3786 72.2409 73.3618 72.2809 73.3618 72.3225V72.8423C73.3618 72.8629 73.3659 72.8833 73.3739 72.9024C73.3819 72.9214 73.3936 72.9387 73.4084 72.9533C73.4231 72.9679 73.4407 72.9794 73.46 72.9873C73.4793 72.9952 73.4999 72.9993 73.5208 72.9993H73.7196V73.778H74.5214V72.9993H74.7201C74.7623 72.9993 74.8028 72.9827 74.8326 72.9533C74.8624 72.9238 74.8791 72.8839 74.8792 72.8423V72.3225C74.8791 72.2809 74.8624 72.241 74.8326 72.2115C74.8028 72.1821 74.7623 72.1655 74.7201 72.1655Z" fill="#E6E6E6"/>
<path d="M75.9209 76.9225C75.1864 75.8614 74.8109 74.5979 74.8482 73.3132C74.8489 73.2835 74.8392 73.2546 74.8207 73.2312C74.8022 73.2078 74.776 73.1915 74.7467 73.185V72.9604H73.4801V73.1819H73.4627C73.4456 73.1819 73.4287 73.1853 73.4129 73.1917C73.3972 73.1982 73.3829 73.2077 73.3708 73.2196C73.3587 73.2315 73.3492 73.2457 73.3427 73.2613C73.3362 73.2769 73.3328 73.2935 73.3329 73.3104C73.3329 73.3135 73.333 73.3166 73.3332 73.3197C73.4501 74.6307 73.0919 75.9401 72.3223 77.0146C72.2778 77.0773 72.2551 77.1525 72.2575 77.229L72.396 81.4589C72.3993 81.5533 72.4394 81.6427 72.508 81.7086C72.5765 81.7744 72.6681 81.8116 72.7637 81.8123H75.6287C75.7254 81.8116 75.8179 81.7735 75.8867 81.7064C75.9554 81.6392 75.9948 81.5482 75.9966 81.4527L76.05 77.3457C76.0515 77.195 76.0065 77.0474 75.9209 76.9225Z" fill="#F83758"/>
<path opacity="0.2" d="M74.4698 72.3345C74.4698 72.4243 74.4336 72.5104 74.3693 72.574C74.305 72.6375 74.2177 72.6732 74.1267 72.6732C74.0358 72.6732 73.9485 72.6375 73.8842 72.574C73.8198 72.5104 73.7837 72.4243 73.7837 72.3345" fill="black"/>
<path d="M75.3633 77.7378H72.9448V79.3297H75.3633V77.7378Z" fill="white"/>
<path d="M112.673 88.6904H110.428C110.349 88.6904 110.273 88.7214 110.217 88.7765C110.161 88.8316 110.13 88.9064 110.13 88.9843V89.9572C110.13 90.0352 110.161 90.1099 110.217 90.165C110.273 90.2202 110.349 90.2511 110.428 90.2511H110.8V91.7089H112.301V90.2511H112.673C112.752 90.2511 112.827 90.2202 112.883 90.165C112.939 90.1099 112.97 90.0352 112.97 89.9572V88.9843C112.97 88.9064 112.939 88.8316 112.883 88.7765C112.827 88.7214 112.752 88.6904 112.673 88.6904Z" fill="#E6E6E6"/>
<path d="M114.921 97.5949C113.546 95.6085 112.844 93.2434 112.913 90.8385C112.915 90.783 112.896 90.7288 112.862 90.685C112.827 90.6413 112.778 90.6108 112.723 90.5986V90.1782H110.352V90.5928H110.32C110.288 90.5928 110.256 90.5991 110.227 90.6112C110.197 90.6233 110.17 90.641 110.148 90.6634C110.125 90.6857 110.107 90.7122 110.095 90.7414C110.083 90.7705 110.077 90.8017 110.077 90.8333C110.077 90.8391 110.077 90.845 110.077 90.8508C110.264 93.4216 109.633 95.7272 108.185 97.7673C108.102 97.8846 108.059 98.0253 108.064 98.1685L108.323 106.087C108.329 106.263 108.404 106.431 108.533 106.554C108.661 106.677 108.832 106.747 109.011 106.748H114.374C114.555 106.747 114.729 106.676 114.857 106.55C114.986 106.424 115.06 106.254 115.063 106.075L115.163 98.3871C115.166 98.1049 115.082 97.8286 114.921 97.5949Z" fill="#F83758"/>
<path opacity="0.2" d="M112.205 89.0068C112.205 89.175 112.137 89.3362 112.017 89.4552C111.896 89.5741 111.733 89.6409 111.563 89.6409C111.392 89.6409 111.229 89.5741 111.108 89.4552C110.988 89.3362 110.92 89.175 110.92 89.0068" fill="black"/>
<path d="M114.073 100.225H109.405C109.335 100.225 109.267 100.239 109.204 100.268C109.142 100.296 109.086 100.338 109.041 100.39C108.996 100.441 108.963 100.502 108.944 100.568C108.925 100.633 108.92 100.702 108.931 100.77L109.636 105.297H113.687L114.544 100.785C114.557 100.717 114.554 100.646 114.536 100.579C114.519 100.512 114.486 100.449 114.441 100.396C114.396 100.342 114.34 100.299 114.276 100.269C114.213 100.24 114.143 100.225 114.073 100.225Z" fill="white"/>
<path d="M106.267 106.97H92.8848C93.8204 101.976 93.6051 95.9448 92.8848 89.459H106.267C105.566 95.9448 105.357 101.976 106.267 106.97Z" fill="#F83758"/>
<path d="M99.6568 100.92C101.438 100.92 102.882 99.4945 102.882 97.7361C102.882 95.9777 101.438 94.5522 99.6568 94.5522C97.8759 94.5522 96.4321 95.9777 96.4321 97.7361C96.4321 99.4945 97.8759 100.92 99.6568 100.92Z" fill="white"/>
<path d="M51.5298 51.8595L54.534 51.5899L56.4459 47.0058L53.032 45.1182L51.5298 51.8595Z" fill="#FFB8B8"/>
<path d="M79.1011 64.4445C79.201 64.1985 79.2403 63.9326 79.2156 63.6687C79.191 63.4048 79.1033 63.1505 78.9595 62.9267C78.8158 62.7028 78.6203 62.5159 78.3891 62.3813C78.1579 62.2467 77.8976 62.1683 77.6296 62.1526L72.9651 61.8779L72.2783 64.1328L77.0802 65.4349C77.4815 65.5437 77.9092 65.5029 78.282 65.3202C78.6547 65.1376 78.9463 64.8258 79.1011 64.4445Z" fill="#FFB8B8"/>
<path d="M74.0924 65.4724L74.0411 61.2411L63.68 59.6088L55.6981 50.5703C55.2828 50.1001 54.7089 49.7944 54.0828 49.7098C53.4567 49.6253 52.8208 49.7677 52.2929 50.1106C51.9733 50.3182 51.7037 50.5926 51.5033 50.9144C51.3029 51.2362 51.1765 51.5976 51.1331 51.9729C51.0897 52.3482 51.1303 52.7284 51.252 53.0865C51.3738 53.4446 51.5737 53.772 51.8377 54.0454L58.4228 62.0466L74.0924 65.4724Z" fill="#F83758"/>
<path d="M49.2085 113.071H51.9396L58.7139 82.8312L65.732 92.173L69.8287 112.397H72.4233L71.8771 90.6899L62.7277 67.4995H53.7149C51.2519 71.9005 49.3198 76.4371 51.53 81.1171L49.2085 113.071Z" fill="#231F20"/>
<path d="M68.154 114.908C68.1238 115.004 68.1146 115.105 68.1268 115.204C68.1391 115.303 68.1727 115.398 68.2253 115.484C68.2778 115.569 68.3483 115.643 68.4318 115.699C68.5154 115.756 68.6101 115.794 68.7098 115.811L75.393 116.982C75.6571 117.03 75.9297 116.981 76.1595 116.844C76.3893 116.707 76.5603 116.491 76.6404 116.238C76.7183 115.996 76.7074 115.735 76.6097 115.501C76.5119 115.266 76.3336 115.073 76.1059 114.955C74.6364 114.21 73.3718 113.125 72.4203 111.792C71.6858 112.467 70.8648 112.403 69.993 111.906L69.0683 112.02L68.154 114.908Z" fill="#231F20"/>
<path d="M47.9441 114.908C47.9139 115.004 47.9046 115.105 47.9169 115.204C47.9292 115.303 47.9627 115.398 48.0153 115.484C48.0679 115.569 48.1383 115.643 48.2218 115.699C48.3054 115.756 48.4002 115.794 48.4998 115.811L55.183 116.982C55.4471 117.03 55.7197 116.981 55.9495 116.844C56.1793 116.707 56.3503 116.491 56.4304 116.238C56.5083 115.996 56.4974 115.735 56.3997 115.501C56.3019 115.266 56.1236 115.073 55.896 114.955C54.4265 114.21 53.1618 113.125 52.2103 111.792C51.4758 112.467 50.6548 112.403 49.783 111.906L48.8584 112.02L47.9441 114.908Z" fill="#231F20"/>
<path d="M56.514 48.6915C58.6258 48.6915 60.3376 47.0013 60.3376 44.9163C60.3376 42.8313 58.6258 41.1411 56.514 41.1411C54.4023 41.1411 52.6904 42.8313 52.6904 44.9163C52.6904 47.0013 54.4023 48.6915 56.514 48.6915Z" fill="#FFB8B8"/>
<path d="M53.1004 68.511L63.0691 68.2414L60.1415 59.1441C61.9609 56.2644 60.1299 53.3876 57.5386 50.5115L55.4902 49.1632L52.2128 48.8936C50.7938 50.3927 50.0174 52.3758 50.0462 54.4275C50.1111 58.8208 50.899 63.6035 53.1004 68.511Z" fill="#F83758"/>
<path d="M76.004 74.6345C76.1938 74.4471 76.3359 74.2179 76.4184 73.9658C76.5009 73.7136 76.5215 73.4457 76.4786 73.1841C76.4357 72.9225 76.3304 72.6747 76.1714 72.4611C76.0125 72.2476 75.8044 72.0744 75.5644 71.9558L71.3853 69.8916L69.8555 71.6979L73.7514 74.7601C74.077 75.016 74.4865 75.1446 74.902 75.1214C75.3174 75.0983 75.7097 74.9249 76.004 74.6345Z" fill="#FFB8B8"/>
<path d="M70.9892 73.6347L72.6279 69.7247L63.7526 64.1997L60.0155 52.7897C59.8211 52.1961 59.4153 51.6921 58.8734 51.3712C58.3314 51.0503 57.69 50.9343 57.0681 51.0445C56.6915 51.1112 56.3343 51.2588 56.0219 51.4768C55.7094 51.6948 55.4492 51.9779 55.2598 52.3061C55.0703 52.6343 54.9562 52.9996 54.9254 53.3762C54.8947 53.7527 54.9481 54.1313 55.0818 54.4852L57.948 64.399L70.9892 73.6347Z" fill="#F83758"/>
<path d="M50.2324 43.4334C50.2324 44.9023 51.1986 47.1772 52.4173 48.1524C53.2373 48.8085 54.321 48.7808 54.7388 47.8827C55.1674 46.9614 56.6449 44.7957 59.2452 43.4334C62.7117 41.6173 58.0159 38.5103 54.7388 38.9841C52.2763 39.3401 50.2324 40.9761 50.2324 43.4334Z" fill="#231F20"/>
<path d="M52.5539 41.4107C54.0623 41.4107 55.2851 40.2034 55.2851 38.7141C55.2851 37.2249 54.0623 36.0176 52.5539 36.0176C51.0455 36.0176 49.8228 37.2249 49.8228 38.7141C49.8228 40.2034 51.0455 41.4107 52.5539 41.4107Z" fill="#231F20"/>
<path d="M55.6952 37.7703C55.695 37.0905 55.4345 36.4359 54.966 35.9377C54.4975 35.4395 53.8556 35.1345 53.1689 35.0839C53.2368 35.079 53.3046 35.0737 53.3738 35.0737C54.0981 35.0737 54.7928 35.3578 55.305 35.8635C55.8172 36.3692 56.1049 37.0551 56.1049 37.7703C56.1049 38.4855 55.8172 39.1713 55.305 39.677C54.7928 40.1827 54.0981 40.4668 53.3738 40.4668C53.3046 40.4668 53.2368 40.4616 53.1689 40.4566C53.8556 40.406 54.4975 40.1011 54.966 39.6029C55.4345 39.1047 55.695 38.4501 55.6952 37.7703Z" fill="#231F20"/>
<path d="M56.5823 46.2644C56.9217 46.2644 57.1968 45.9022 57.1968 45.4554C57.1968 45.0087 56.9217 44.6465 56.5823 44.6465C56.2429 44.6465 55.9678 45.0087 55.9678 45.4554C55.9678 45.9022 56.2429 46.2644 56.5823 46.2644Z" fill="#FFB8B8"/>
<path d="M133.964 108.127H91.4488L82.4457 66.1057H74.7622V64.2202H83.9936L92.9967 106.241H133.964V108.127Z" fill="#3B3B3B"/>
<path d="M97.6797 115.803C99.9398 115.803 101.772 113.994 101.772 111.763C101.772 109.531 99.9398 107.722 97.6797 107.722C95.4196 107.722 93.5874 109.531 93.5874 111.763C93.5874 113.994 95.4196 115.803 97.6797 115.803Z" fill="#3B3B3B"/>
<path d="M128.235 115.803C130.496 115.803 132.328 113.994 132.328 111.763C132.328 109.531 130.496 107.722 128.235 107.722C125.975 107.722 124.143 109.531 124.143 111.763C124.143 113.994 125.975 115.803 128.235 115.803Z" fill="#3B3B3B"/>
<path d="M133.19 107.239H91.8244L84.5259 71.6279H140.039C140.322 71.628 140.602 71.6886 140.859 71.8056C141.117 71.9226 141.345 72.0933 141.529 72.3058C141.713 72.5184 141.849 72.7678 141.926 73.0369C142.003 73.306 142.02 73.5884 141.976 73.8647L135.127 105.603C135.056 106.06 134.822 106.476 134.466 106.777C134.11 107.077 133.658 107.241 133.19 107.239ZM92.2736 106.7H133.19C133.527 106.702 133.854 106.583 134.111 106.367C134.367 106.15 134.537 105.849 134.588 105.52L141.437 73.781C141.469 73.5816 141.456 73.3777 141.401 73.1835C141.345 72.9893 141.247 72.8093 141.115 72.6558C140.982 72.5024 140.817 72.3792 140.631 72.2948C140.445 72.2103 140.243 72.1666 140.039 72.1667H85.1882L92.2736 106.7Z" fill="#3B3B3B"/>
<path d="M99.8657 107.124L95.0859 71.9403L95.6242 71.8525L100.404 107.036L99.8657 107.124Z" fill="#3B3B3B"/>
<path d="M126.443 106.854L125.904 106.768L130.544 71.8535L131.083 71.9397L126.443 106.854Z" fill="#3B3B3B"/>
<path d="M113.781 71.897H113.235V107.081H113.781V71.897Z" fill="#3B3B3B"/>
<path d="M87.3128 81.3245L87.3115 81.8633L140.129 81.9896L140.13 81.4508L87.3128 81.3245Z" fill="#3B3B3B"/>
<path d="M136.403 97.9661L90.002 98.2793L90.0057 98.818L136.407 98.5049L136.403 97.9661Z" fill="#3B3B3B"/>
<path d="M75.5811 66.5093C77.2385 66.5093 78.5821 65.7857 78.5821 64.8931C78.5821 64.0005 77.2385 63.2769 75.5811 63.2769C73.9237 63.2769 72.5801 64.0005 72.5801 64.8931C72.5801 65.7857 73.9237 66.5093 75.5811 66.5093Z" fill="#3B3B3B"/>
</g>
<defs>
<clipPath id="clip0_23_482">
<rect width="142" height="117" fill="white"/>
</clipPath>
</defs>
</svg>
