<svg width="16" height="16" viewBox="0 0 16 16" fill="none" xmlns="http://www.w3.org/2000/svg">
<g clip-path="url(#clip0_53_102)">
<path d="M14.6668 3.8002L11.6002 1.2002L10.7335 2.2002L13.8002 4.8002L14.6668 3.8002ZM5.26683 2.26686L4.40016 1.26686L1.3335 3.8002L2.20016 4.8002L5.26683 2.26686ZM8.3335 5.33353H7.3335V9.33353L10.4668 11.2669L11.0002 10.4669L8.3335 8.86686V5.33353ZM8.00016 2.66686C4.66683 2.66686 2.00016 5.33353 2.00016 8.66686C2.00016 12.0002 4.66683 14.6669 8.00016 14.6669C11.3335 14.6669 14.0002 12.0002 14.0002 8.66686C14.0002 5.33353 11.3335 2.66686 8.00016 2.66686ZM8.00016 13.3335C5.40016 13.3335 3.3335 11.2669 3.3335 8.66686C3.3335 6.06686 5.40016 4.0002 8.00016 4.0002C10.6002 4.0002 12.6668 6.06686 12.6668 8.66686C12.6668 11.2669 10.6002 13.3335 8.00016 13.3335Z" fill="white"/>
</g>
<defs>
<clipPath id="clip0_53_102">
<rect width="16" height="16" fill="white"/>
</clipPath>
</defs>
</svg>
