<svg width="25" height="24" viewBox="0 0 25 24" fill="none" xmlns="http://www.w3.org/2000/svg">
<g clip-path="url(#clip0_23_423)">
<path d="M21.763 4.60987C21.2522 4.09888 20.6458 3.69352 19.9783 3.41696C19.3109 3.14039 18.5955 2.99805 17.873 2.99805C17.1505 2.99805 16.4351 3.14039 15.7676 3.41696C15.1002 3.69352 14.4937 4.09888 13.983 4.60987L12.923 5.66987L11.863 4.60987C10.8313 3.57818 9.432 2.99858 7.97297 2.99858C6.51394 2.99858 5.11466 3.57818 4.08297 4.60987C3.05128 5.64156 2.47168 7.04084 2.47168 8.49987C2.47168 9.95891 3.05128 11.3582 4.08297 12.3899L5.14297 13.4499L12.923 21.2299L20.703 13.4499L21.763 12.3899C22.274 11.8791 22.6793 11.2727 22.9559 10.6052C23.2324 9.93777 23.3748 9.22236 23.3748 8.49987C23.3748 7.77738 23.2324 7.06198 22.9559 6.39452C22.6793 5.72706 22.274 5.12063 21.763 4.60987Z" stroke="#5D5D5D" stroke-width="2" stroke-linecap="round" stroke-linejoin="round"/>
</g>
<defs>
<clipPath id="clip0_23_423">
<rect width="24" height="24" fill="white" transform="translate(0.922852)"/>
</clipPath>
</defs>
</svg>
